<?xml version="1.0" standalone="no"?>
<!DOCTYPE svg PUBLIC "-//W3C//DTD SVG 20010904//EN"
 "http://www.w3.org/TR/2001/REC-SVG-20010904/DTD/svg10.dtd">
<svg version="1.0" xmlns="http://www.w3.org/2000/svg"
 width="300.000000pt" height="300.000000pt" viewBox="0 0 300.000000 300.000000"
 preserveAspectRatio="xMidYMid meet">
<metadata>
Created by potrace 1.11, written by Peter Selinger 2001-2013
</metadata>
<g transform="translate(0.000000,300.000000) scale(0.100000,-0.100000)"
fill="#000000" stroke="none">
<path d="M0 1500 l0 -1500 1500 0 1500 0 0 1500 0 1500 -1500 0 -1500 0 0
-1500z m1947 724 c238 -152 438 -285 443 -295 6 -10 10 -95 10 -190 l0 -171
-27 6 c-16 3 -95 9 -178 12 -371 16 -679 -89 -953 -325 -159 -138 -324 -372
-413 -583 l-32 -78 -84 0 c-80 0 -86 2 -114 29 l-29 29 0 624 c0 475 3 629 13
646 18 35 864 571 901 572 20 0 149 -77 463 -276z m416 -684 l37 0 0 -441 0
-441 -29 -29 -29 -29 -666 0 c-454 0 -666 3 -666 10 0 6 15 50 34 98 164 425
464 697 881 798 115 27 271 45 350 38 28 -2 67 -4 88 -4z"/>
<path d="M1154 2024 c-170 -107 -317 -205 -326 -216 -16 -18 -18 -49 -18 -332
l0 -311 27 35 c86 114 246 240 407 322 169 85 327 128 546 149 104 9 308 5
353 -7 15 -5 17 3 17 59 0 47 -5 70 -17 85 -29 33 -634 412 -658 412 -12 0
-161 -88 -331 -196z"/>
<path d="M2066 1439 c-155 -38 -319 -133 -419 -243 -79 -87 -173 -247 -193
-328 l-6 -28 327 0 327 0 29 29 29 29 0 281 c0 155 -3 281 -7 280 -5 0 -44 -9
-87 -20z"/>
</g>
</svg>
